<svg width="30" height="31" viewBox="0 0 30 31" fill="none" xmlns="http://www.w3.org/2000/svg">
<g clip-path="url(#clip0)">
<path d="M28.6176 29.9247L26.3761 9.04049C26.3387 8.70425 26.0398 8.44273 25.7036 8.44273H21.5566V7.1725C21.5566 3.58595 18.6426 0.671875 15.056 0.671875C11.4694 0.671875 8.55538 3.58595 8.55538 7.1725V8.44273H4.29635C3.96011 8.44273 3.66123 8.70425 3.62387 9.04049L1.38228 29.9247C1.34492 30.1115 1.41964 30.2983 1.53172 30.4477C1.6438 30.5972 1.8306 30.6719 2.0174 30.6719H27.9825C28.1693 30.6719 28.3561 30.5972 28.4682 30.4477C28.5803 30.2983 28.655 30.1115 28.6176 29.9247ZM20.8841 12.2161C21.2204 12.2161 21.4819 12.4776 21.4819 12.8138C21.4819 13.1501 21.2204 13.4116 20.8841 13.4116C20.5479 13.4116 20.2864 13.1501 20.2864 12.8138C20.2864 12.4776 20.5479 12.2161 20.8841 12.2161ZM9.90034 7.1725C9.90034 4.33315 12.2166 2.01683 15.056 2.01683C17.8954 2.01683 20.2117 4.33315 20.2117 7.1725V8.44273H9.90034V7.1725ZM9.22786 12.2161C9.5641 12.2161 9.82561 12.4776 9.82561 12.8138C9.82561 13.1501 9.5641 13.4116 9.22786 13.4116C8.89162 13.4116 8.6301 13.1501 8.6301 12.8138C8.6301 12.4776 8.89162 12.2161 9.22786 12.2161ZM2.80195 29.2896L4.89411 9.75033H8.55538V10.9832C7.80818 11.2447 7.28514 11.9546 7.28514 12.7765C7.28514 13.8226 8.14442 14.6818 9.1905 14.6818C10.2366 14.6818 11.0959 13.8226 11.0959 12.7765C11.0959 11.9546 10.5728 11.2447 9.82561 10.9832V9.75033H20.1369V10.9832C19.3897 11.2447 18.8667 11.9546 18.8667 12.7765C18.8667 13.8226 19.726 14.6818 20.7721 14.6818C21.8181 14.6818 22.6774 13.8226 22.6774 12.7765C22.6774 11.9546 22.1544 11.2447 21.4072 10.9832V9.75033H25.2179L27.31 29.2896H2.80195Z" fill="black"/>
</g>
<defs>
<clipPath id="clip0">
<rect width="30" height="30" fill="white" transform="translate(0 0.671875)"/>
</clipPath>
</defs>
</svg>
