<svg width="246" height="177" viewBox="0 0 246 177" fill="none" xmlns="http://www.w3.org/2000/svg">
<g clip-path="url(#clip0)">
<path d="M56.2276 53.0205C56.7482 53.3444 57.2594 53.6743 57.7698 54.0149C63.1616 67.5805 66.2402 81.9543 66.8773 96.5383C66.9558 98.2249 66.9957 99.9089 66.9968 101.59C67.0433 114.199 65.2084 126.744 61.5528 138.811C61.3599 139.446 61.1628 140.079 60.9616 140.709C60.8174 141.161 60.6705 141.617 60.5112 142.066C60.3419 142.296 60.1751 142.522 60.0083 142.748C59.9965 142.758 59.9863 142.774 59.9743 142.784C59.9071 142.875 59.8399 142.967 59.7795 143.056C59.4911 143.443 59.1984 143.828 58.9101 144.215L59.153 144.231L59.7617 144.27L59.7592 144.274C59.5548 144.27 59.3463 144.263 59.1402 144.252C59.0653 144.252 58.9838 144.254 58.9073 144.248C58.8391 144.246 58.7669 144.242 58.6986 144.241C49.9215 144.003 40.9389 143.565 32.9517 139.976C24.5917 136.216 17.5002 128.086 17.8605 118.929C17.9113 117.73 18.0932 116.54 18.4032 115.38C18.5325 114.896 18.6854 114.42 18.8492 113.945C19.8461 111.038 21.5993 108.449 23.9286 106.444C26.2578 104.439 29.0789 103.091 32.102 102.537C35.1251 101.984 38.241 102.246 41.1294 103.296C44.0177 104.346 46.5743 106.146 48.5363 108.512C46.1404 99.096 35.8549 94.2912 26.591 91.37C17.3203 88.4505 6.88995 85.3967 2.15363 76.9128C-0.490742 72.1917 -0.554413 66.691 1.17108 61.6116C1.22361 61.4599 1.27878 61.3038 1.33809 61.1503C3.51125 55.1739 7.85944 50.2377 13.5138 47.3278C24.1081 42.0824 36.9814 43.9331 47.8366 48.6149C50.7409 49.8692 53.546 51.342 56.2276 53.0205Z" fill="#F2F2F2"/>
<path d="M25.8625 113.984C34.1897 114.75 42.0495 118.174 48.2803 123.752C53.5869 128.555 57.5026 134.698 59.6164 141.536C59.7394 141.928 59.8514 142.318 59.9566 142.71C60.1669 142.31 60.3713 141.9 60.5733 141.495C60.7033 141.235 60.8359 140.971 60.9617 140.709C60.8175 141.161 60.6707 141.618 60.5114 142.066C60.342 142.296 60.1752 142.522 60.0085 142.748C59.9967 142.758 59.9864 142.774 59.9745 142.784C59.9073 142.876 59.8401 142.967 59.7796 143.056C59.4912 143.443 59.1986 143.828 58.9103 144.215L59.1531 144.231L59.7619 144.27L59.7594 144.274C59.555 144.27 59.3465 144.263 59.1404 144.252C59.0655 144.252 58.9839 144.254 58.9075 144.248C58.8823 144.129 58.8505 144.012 58.8187 143.894C56.6612 135.062 51.3802 127.309 43.9512 122.068C36.5223 116.827 27.4475 114.451 18.4033 115.38C18.5327 114.896 18.6856 114.42 18.8494 113.945C21.1838 113.754 23.5304 113.767 25.8625 113.984Z" fill="white"/>
<path d="M53.5295 79.1566C56.8707 81.6599 59.8282 84.6378 62.3085 87.9961C63.6008 89.7864 64.7236 91.6931 65.6622 93.6916C66.1072 94.6189 66.5123 95.5737 66.877 96.5383C66.9555 98.2249 66.9954 99.9089 66.9965 101.59C66.6868 100.319 66.3094 99.0655 65.866 97.8347C65.6353 97.1589 65.3791 96.4964 65.1068 95.8415C62.0535 88.5073 56.5217 82.7165 49.9975 78.3138C43.0063 73.6029 35.1246 70.0664 27.137 67.4367C18.9511 64.7292 10.4641 63.0354 1.86597 62.3931C1.67179 62.3774 1.49116 62.2873 1.36168 62.1418C1.23221 61.9962 1.16388 61.8063 1.1709 61.6116C1.1643 61.442 1.22423 61.2764 1.33792 61.1503C1.39832 61.0912 1.47175 61.047 1.55232 61.0214C1.63289 60.9957 1.71836 60.9894 1.80184 61.0028C2.86288 61.0821 3.92118 61.166 4.97941 61.2782C13.7845 62.1852 22.4426 64.1837 30.7544 67.2279C38.7782 70.1556 46.7192 73.9524 53.5295 79.1566Z" fill="white"/>
<path d="M9.90154 38.5939C11.5269 38.5939 12.8446 37.2762 12.8446 35.6508C12.8446 34.0254 11.5269 32.7077 9.90154 32.7077C8.27614 32.7077 6.9585 34.0254 6.9585 35.6508C6.9585 37.2762 8.27614 38.5939 9.90154 38.5939Z" fill="#F2F2F2"/>
<path d="M190.703 62.8203H57.1069V176.612H190.703V62.8203Z" fill="white"/>
<path d="M191.092 177H56.7188V62.4319H191.092V177ZM57.4955 176.223H190.315V63.2087H57.4955V176.223Z" fill="#3F3D56"/>
<path d="M140.605 84.9572H107.206V176.612H140.605V84.9572Z" fill="#55AD60"/>
<path d="M140.605 84.9572H107.206V176.612H140.605V84.9572Z" fill="#55AD60"/>
<path opacity="0.2" d="M57.4956 71.1701V89.6322L190.704 98.1615L190.311 75.3807L57.4956 71.1701Z" fill="black"/>
<path d="M198.471 52.3344H49.3398V84.9572H198.471V52.3344Z" fill="white"/>
<path d="M198.859 85.3455H48.9512V51.946H198.859V85.3455ZM49.7279 84.5688H198.082V52.7228H49.7279V84.5688Z" fill="#3F3D56"/>
<path d="M140.605 49.2275H107.206V84.5688H140.605V49.2275Z" fill="#55AD60"/>
<path d="M120.33 18.413C129.146 31.4822 120.839 52.5021 120.839 52.5021C120.839 52.5021 98.2386 52.3326 89.4222 39.2635C80.6059 26.1943 88.9125 5.17445 88.9125 5.17445C88.9125 5.17445 111.513 5.34388 120.33 18.413Z" fill="#55AD60"/>
<path d="M124.374 18.413C115.558 31.4822 123.865 52.5021 123.865 52.5021C123.865 52.5021 146.465 52.3326 155.282 39.2635C164.098 26.1943 155.792 5.17445 155.792 5.17445C155.792 5.17445 133.191 5.34388 124.374 18.413Z" fill="#55AD60"/>
<path d="M100.604 28.2557C102.534 28.2557 104.099 26.6908 104.099 24.7604C104.099 22.83 102.534 21.2651 100.604 21.2651C98.6733 21.2651 97.1084 22.83 97.1084 24.7604C97.1084 26.6908 98.6733 28.2557 100.604 28.2557Z" fill="#3F3D56"/>
<path d="M121.575 63.597C123.506 63.597 125.071 62.0321 125.071 60.1017C125.071 58.1713 123.506 56.6064 121.575 56.6064C119.645 56.6064 118.08 58.1713 118.08 60.1017C118.08 62.0321 119.645 63.597 121.575 63.597Z" fill="#3F3D56"/>
<path d="M121.575 140.105C123.506 140.105 125.071 138.54 125.071 136.61C125.071 134.68 123.506 133.115 121.575 133.115C119.645 133.115 118.08 134.68 118.08 136.61C118.08 138.54 119.645 140.105 121.575 140.105Z" fill="#3F3D56"/>
<path d="M109.924 39.9067C111.211 39.9067 112.255 38.8634 112.255 37.5765C112.255 36.2896 111.211 35.2463 109.924 35.2463C108.637 35.2463 107.594 36.2896 107.594 37.5765C107.594 38.8634 108.637 39.9067 109.924 39.9067Z" fill="#3F3D56"/>
<path d="M144.877 20.1C146.164 20.1 147.207 19.0568 147.207 17.7698C147.207 16.4829 146.164 15.4396 144.877 15.4396C143.59 15.4396 142.547 16.4829 142.547 17.7698C142.547 19.0568 143.59 20.1 144.877 20.1Z" fill="#3F3D56"/>
<path d="M129.731 74.8597C131.017 74.8597 132.061 73.8164 132.061 72.5295C132.061 71.2425 131.017 70.1993 129.731 70.1993C128.444 70.1993 127.4 71.2425 127.4 72.5295C127.4 73.8164 128.444 74.8597 129.731 74.8597Z" fill="#3F3D56"/>
<path d="M115.75 105.152C117.037 105.152 118.08 104.109 118.08 102.822C118.08 101.535 117.037 100.492 115.75 100.492C114.463 100.492 113.419 101.535 113.419 102.822C113.419 104.109 114.463 105.152 115.75 105.152Z" fill="#3F3D56"/>
<path d="M127.789 115.638C129.076 115.638 130.119 114.595 130.119 113.308C130.119 112.021 129.076 110.978 127.789 110.978C126.502 110.978 125.458 112.021 125.458 113.308C125.458 114.595 126.502 115.638 127.789 115.638Z" fill="#3F3D56"/>
<path d="M125.07 159.524C126.357 159.524 127.401 158.48 127.401 157.193C127.401 155.906 126.357 154.863 125.07 154.863C123.783 154.863 122.74 155.906 122.74 157.193C122.74 158.48 123.783 159.524 125.07 159.524Z" fill="#3F3D56"/>
<path d="M241.661 116.247H170.576V176.793H241.661V116.247Z" fill="white"/>
<path d="M241.867 177H170.37V116.04H241.867V177ZM170.783 176.587H241.454V116.454H170.783V176.587Z" fill="#3F3D56"/>
<path d="M215.004 128.026H197.233V176.793H215.004V128.026Z" fill="#55AD60"/>
<path d="M215.004 128.026H197.233V176.793H215.004V128.026Z" fill="#55AD60"/>
<path opacity="0.2" d="M170.783 120.69V130.513L241.661 135.051L241.452 122.93L170.783 120.69Z" fill="black"/>
<path d="M245.793 110.668H166.443V128.026H245.793V110.668Z" fill="white"/>
<path d="M246 128.232H166.237V110.461H246V128.232ZM166.65 127.819H245.587V110.874H166.65V127.819Z" fill="#3F3D56"/>
<path d="M215.004 109.014H197.233V127.819H215.004V109.014Z" fill="#55AD60"/>
<path d="M204.216 92.6186C208.907 99.5724 204.487 110.757 204.487 110.757C204.487 110.757 192.461 110.667 187.77 103.713C183.079 96.7588 187.499 85.5745 187.499 85.5745C187.499 85.5745 199.525 85.6647 204.216 92.6186Z" fill="#55AD60"/>
<path d="M206.368 92.6186C201.677 99.5724 206.097 110.757 206.097 110.757C206.097 110.757 218.122 110.667 222.813 103.713C227.504 96.7588 223.085 85.5745 223.085 85.5745C223.085 85.5745 211.059 85.6647 206.368 92.6186Z" fill="#55AD60"/>
<path d="M193.72 97.8557C194.747 97.8557 195.58 97.023 195.58 95.9959C195.58 94.9688 194.747 94.1361 193.72 94.1361C192.693 94.1361 191.86 94.9688 191.86 95.9959C191.86 97.023 192.693 97.8557 193.72 97.8557Z" fill="#3F3D56"/>
<path d="M204.878 116.66C205.905 116.66 206.738 115.828 206.738 114.8C206.738 113.773 205.905 112.941 204.878 112.941C203.851 112.941 203.019 113.773 203.019 114.8C203.019 115.828 203.851 116.66 204.878 116.66Z" fill="#3F3D56"/>
<path d="M204.878 157.369C205.905 157.369 206.738 156.536 206.738 155.509C206.738 154.482 205.905 153.649 204.878 153.649C203.851 153.649 203.019 154.482 203.019 155.509C203.019 156.536 203.851 157.369 204.878 157.369Z" fill="#3F3D56"/>
<path d="M198.679 104.055C199.364 104.055 199.919 103.5 199.919 102.815C199.919 102.13 199.364 101.575 198.679 101.575C197.995 101.575 197.439 102.13 197.439 102.815C197.439 103.5 197.995 104.055 198.679 104.055Z" fill="#3F3D56"/>
<path d="M217.277 93.5162C217.962 93.5162 218.517 92.9611 218.517 92.2763C218.517 91.5916 217.962 91.0365 217.277 91.0365C216.592 91.0365 216.037 91.5916 216.037 92.2763C216.037 92.9611 216.592 93.5162 217.277 93.5162Z" fill="#3F3D56"/>
<path d="M209.218 122.653C209.903 122.653 210.458 122.098 210.458 121.413C210.458 120.728 209.903 120.173 209.218 120.173C208.533 120.173 207.978 120.728 207.978 121.413C207.978 122.098 208.533 122.653 209.218 122.653Z" fill="#3F3D56"/>
<path d="M201.779 138.771C202.464 138.771 203.019 138.216 203.019 137.531C203.019 136.846 202.464 136.291 201.779 136.291C201.094 136.291 200.539 136.846 200.539 137.531C200.539 138.216 201.094 138.771 201.779 138.771Z" fill="#3F3D56"/>
<path d="M208.185 144.35C208.869 144.35 209.425 143.795 209.425 143.111C209.425 142.426 208.869 141.871 208.185 141.871C207.5 141.871 206.945 142.426 206.945 143.111C206.945 143.795 207.5 144.35 208.185 144.35Z" fill="#3F3D56"/>
<path d="M206.738 167.701C207.423 167.701 207.978 167.146 207.978 166.461C207.978 165.776 207.423 165.221 206.738 165.221C206.054 165.221 205.499 165.776 205.499 166.461C205.499 167.146 206.054 167.701 206.738 167.701Z" fill="#3F3D56"/>
<path d="M119.348 148.898C119.969 147.588 117.09 144.922 112.917 142.943C108.743 140.963 104.857 140.421 104.235 141.731C103.614 143.041 106.493 145.708 110.666 147.687C114.84 149.666 118.726 150.209 119.348 148.898Z" fill="#2F2E41"/>
<path d="M153.789 162.392C154.901 161.461 153.398 157.836 150.433 154.294C147.468 150.753 144.163 148.637 143.052 149.568C141.94 150.498 143.442 154.124 146.407 157.665C149.372 161.207 152.677 163.323 153.789 162.392Z" fill="#2F2E41"/>
<path d="M130.63 169.802C139.868 169.802 147.356 162.313 147.356 153.076C147.356 143.838 139.868 136.35 130.63 136.35C121.393 136.35 113.905 143.838 113.905 153.076C113.905 162.313 121.393 169.802 130.63 169.802Z" fill="#2F2E41"/>
<path d="M137.71 166.202H132.628V175.306H137.71V166.202Z" fill="#2F2E41"/>
<path d="M127.547 166.202H122.466V175.306H127.547V166.202Z" fill="#2F2E41"/>
<path d="M133.476 177C135.814 177 137.71 176.289 137.71 175.412C137.71 174.535 135.814 173.824 133.476 173.824C131.137 173.824 129.241 174.535 129.241 175.412C129.241 176.289 131.137 177 133.476 177Z" fill="#2F2E41"/>
<path d="M123.313 176.788C125.652 176.788 127.547 176.077 127.547 175.2C127.547 174.323 125.652 173.612 123.313 173.612C120.974 173.612 119.079 174.323 119.079 175.2C119.079 176.077 120.974 176.788 123.313 176.788Z" fill="#2F2E41"/>
<path d="M125.379 132.051C126.872 126.036 133.465 122.497 140.103 124.145C146.742 125.794 150.913 132.006 149.42 138.02C147.926 144.035 142.971 144.054 136.332 142.406C129.694 140.757 123.885 138.065 125.379 132.051Z" fill="#E6E6E6"/>
<path d="M128.13 155.123C131.21 155.123 133.706 152.626 133.706 149.546C133.706 146.467 131.21 143.97 128.13 143.97C125.05 143.97 122.554 146.467 122.554 149.546C122.554 152.626 125.05 155.123 128.13 155.123Z" fill="white"/>
<path d="M125.838 149.406C126.865 149.406 127.697 148.574 127.697 147.548C127.697 146.521 126.865 145.689 125.838 145.689C124.812 145.689 123.979 146.521 123.979 147.548C123.979 148.574 124.812 149.406 125.838 149.406Z" fill="#3F3D56"/>
<path d="M131.628 161.165C131.715 161.645 131.707 162.138 131.604 162.615C131.501 163.092 131.305 163.544 131.027 163.946C130.75 164.347 130.395 164.69 129.985 164.955C129.575 165.219 129.117 165.4 128.636 165.488C128.156 165.575 127.663 165.567 127.186 165.464C126.709 165.361 126.256 165.165 125.855 164.887C125.454 164.61 125.111 164.255 124.846 163.845C124.582 163.435 124.4 162.976 124.313 162.496L124.312 162.489C123.946 160.469 125.508 159.754 127.528 159.388C129.549 159.022 131.262 159.144 131.628 161.165Z" fill="white"/>
<path d="M164.446 27.1076C168.715 25.3444 171.727 22.8286 171.173 21.4884C170.62 20.1483 166.71 20.4913 162.441 22.2545C158.173 24.0177 155.161 26.5335 155.714 27.8736C156.268 29.2138 160.177 28.8708 164.446 27.1076Z" fill="#2F2E41"/>
<path d="M205.441 38.6514C206.552 37.7206 205.05 34.0952 202.085 30.5538C199.12 27.0125 195.815 24.8962 194.703 25.8271C193.592 26.7579 195.094 30.3833 198.059 33.9246C201.024 37.466 204.329 39.5822 205.441 38.6514Z" fill="#2F2E41"/>
<path d="M182.282 46.061C191.52 46.061 199.008 38.5725 199.008 29.3351C199.008 20.0976 191.52 12.6092 182.282 12.6092C173.045 12.6092 165.557 20.0976 165.557 29.3351C165.557 38.5725 173.045 46.061 182.282 46.061Z" fill="#2F2E41"/>
<path d="M189.361 42.4617H184.28V51.5656H189.361V42.4617Z" fill="#2F2E41"/>
<path d="M179.199 42.4617H174.118V51.5656H179.199V42.4617Z" fill="#2F2E41"/>
<path d="M185.127 53.2594C187.466 53.2594 189.362 52.5485 189.362 51.6715C189.362 50.7945 187.466 50.0836 185.127 50.0836C182.789 50.0836 180.893 50.7945 180.893 51.6715C180.893 52.5485 182.789 53.2594 185.127 53.2594Z" fill="#2F2E41"/>
<path d="M174.965 53.0477C177.303 53.0477 179.199 52.3368 179.199 51.4598C179.199 50.5828 177.303 49.8719 174.965 49.8719C172.626 49.8719 170.73 50.5828 170.73 51.4598C170.73 52.3368 172.626 53.0477 174.965 53.0477Z" fill="#2F2E41"/>
<path d="M177.031 8.31013C178.524 2.2955 185.117 -1.24398 191.756 0.404481C198.394 2.05294 202.565 8.26512 201.072 14.2798C199.578 20.2944 194.624 20.3138 187.985 18.6653C181.346 17.0169 175.537 14.3248 177.031 8.31013Z" fill="#55AD60"/>
<path d="M179.782 31.3822C182.862 31.3822 185.358 28.8855 185.358 25.8058C185.358 22.726 182.862 20.2293 179.782 20.2293C176.702 20.2293 174.206 22.726 174.206 25.8058C174.206 28.8855 176.702 31.3822 179.782 31.3822Z" fill="white"/>
<path d="M177.49 28.3843C178.517 28.3843 179.349 27.5521 179.349 26.5255C179.349 25.4989 178.517 24.6667 177.49 24.6667C176.464 24.6667 175.631 25.4989 175.631 26.5255C175.631 27.5521 176.464 28.3843 177.49 28.3843Z" fill="#3F3D56"/>
<path d="M183.28 37.4239C183.457 38.3939 183.241 39.3944 182.68 40.2052C182.119 41.0159 181.259 41.5706 180.289 41.7472C179.319 41.9238 178.318 41.7078 177.507 41.1468C176.697 40.5857 176.142 39.7256 175.965 38.7555L175.964 38.7484C175.598 36.728 177.16 36.0131 179.181 35.6474C181.201 35.2816 182.915 35.4036 183.28 37.4239Z" fill="white"/>
<path d="M39.1798 169.801C48.4171 169.801 55.9055 162.313 55.9055 153.076C55.9055 143.838 48.4171 136.35 39.1798 136.35C29.9425 136.35 22.4541 143.838 22.4541 153.076C22.4541 162.313 29.9425 169.801 39.1798 169.801Z" fill="#2F2E41"/>
<path d="M36.6393 166.202H31.5581V175.306H36.6393V166.202Z" fill="#2F2E41"/>
<path d="M46.8014 166.202H41.7202V175.306H46.8014V166.202Z" fill="#2F2E41"/>
<path d="M35.792 177C38.1305 177 40.0263 176.289 40.0263 175.412C40.0263 174.535 38.1305 173.824 35.792 173.824C33.4534 173.824 31.5576 174.535 31.5576 175.412C31.5576 176.289 33.4534 177 35.792 177Z" fill="#2F2E41"/>
<path d="M45.9546 176.788C48.2931 176.788 50.1889 176.077 50.1889 175.2C50.1889 174.323 48.2931 173.612 45.9546 173.612C43.616 173.612 41.7202 174.323 41.7202 175.2C41.7202 176.077 43.616 176.788 45.9546 176.788Z" fill="#2F2E41"/>
<path d="M22.9553 137.521C21.6048 131.473 25.9218 125.361 32.5978 123.87C39.2737 122.38 45.7804 126.074 47.1309 132.123C48.4814 138.171 44.0571 140.402 37.3812 141.893C30.7052 143.383 24.3058 143.569 22.9553 137.521Z" fill="#55AD60"/>
<path d="M57.2032 145.767C60.8254 142.142 62.8393 138.281 61.7013 137.144C60.5633 136.007 56.7043 138.024 53.0821 141.649C49.4598 145.274 47.446 149.134 48.584 150.272C49.722 151.409 53.5809 149.392 57.2032 145.767Z" fill="#2F2E41"/>
<path d="M25.6984 151.437C26.8364 150.299 24.8225 146.439 21.2002 142.814C17.578 139.189 13.7191 137.172 12.5811 138.309C11.443 139.446 13.4569 143.307 17.0792 146.932C20.7014 150.557 24.5603 152.574 25.6984 151.437Z" fill="#2F2E41"/>
<path d="M38.4761 156.422C41.6332 156.422 44.1925 153.862 44.1925 150.705C44.1925 147.548 41.6332 144.989 38.4761 144.989C35.3191 144.989 32.7598 147.548 32.7598 150.705C32.7598 153.862 35.3191 156.422 38.4761 156.422Z" fill="white"/>
<path d="M38.4758 152.611C39.5281 152.611 40.3813 151.758 40.3813 150.705C40.3813 149.653 39.5281 148.8 38.4758 148.8C37.4234 148.8 36.5703 149.653 36.5703 150.705C36.5703 151.758 37.4234 152.611 38.4758 152.611Z" fill="#3F3D56"/>
<path d="M43.0136 161.278C43.1011 161.758 43.0931 162.251 42.99 162.728C42.887 163.205 42.691 163.657 42.4132 164.059C42.1354 164.46 41.7812 164.803 41.371 165.068C40.9607 165.332 40.5023 165.513 40.022 165.601C39.5417 165.688 39.0489 165.68 38.5717 165.577C38.0945 165.474 37.6422 165.278 37.2408 165C36.8393 164.723 36.4965 164.369 36.2319 163.958C35.9673 163.548 35.7862 163.09 35.6987 162.609L35.6974 162.602C35.3317 160.582 36.8937 159.867 38.914 159.501C40.9343 159.135 42.6479 159.257 43.0136 161.278Z" fill="white"/>
</g>
<defs>
<clipPath id="clip0">
<rect width="246" height="177" fill="white"/>
</clipPath>
</defs>
</svg>
