<svg width="24" height="25" viewBox="0 0 24 25" fill="none" xmlns="http://www.w3.org/2000/svg">
<g clip-path="url(#clip0)">
<path d="M1.5002 2.30489C-0.385801 4.26389 0.000199258 6.34489 0.000199258 12.6669C0.000199258 17.9169 -0.915801 23.1799 3.8782 24.4189C5.3752 24.8039 18.6392 24.8039 20.1342 24.4169C22.1302 23.9019 23.7542 22.2829 23.9762 19.4599C24.0072 19.0659 24.0072 6.27489 23.9752 5.87289C23.7392 2.86589 21.8882 1.13289 19.4492 0.781891C18.8902 0.700891 18.7782 0.676891 15.9102 0.671891C5.7372 0.676891 3.5072 0.223891 1.5002 2.30489Z" fill="url(#paint0_linear)"/>
<path d="M11.9978 3.81086C8.36681 3.81086 4.91881 3.48786 3.60181 6.86786C3.05781 8.26386 3.13681 10.0769 3.13681 12.6729C3.13681 14.9509 3.06381 17.0919 3.60181 18.4769C4.91581 21.8589 8.39181 21.5349 11.9958 21.5349C15.4728 21.5349 19.0578 21.8969 20.3908 18.4769C20.9358 17.0669 20.8558 15.2809 20.8558 12.6729C20.8558 9.21086 21.0468 6.97586 19.3678 5.29786C17.6678 3.59786 15.3688 3.81086 11.9938 3.81086H11.9978ZM11.2038 5.40786C18.7778 5.39586 19.7418 4.55386 19.2098 16.2509C19.0208 20.3879 15.8708 19.9339 11.9988 19.9339C4.93881 19.9339 4.73581 19.7319 4.73581 12.6689C4.73581 5.52386 5.29581 5.41186 11.2038 5.40586V5.40786ZM16.7278 6.87886C16.1408 6.87886 15.6648 7.35486 15.6648 7.94186C15.6648 8.52886 16.1408 9.00486 16.7278 9.00486C17.3148 9.00486 17.7908 8.52886 17.7908 7.94186C17.7908 7.35486 17.3148 6.87886 16.7278 6.87886ZM11.9978 8.12186C9.48481 8.12186 7.44781 10.1599 7.44781 12.6729C7.44781 15.1859 9.48481 17.2229 11.9978 17.2229C14.5108 17.2229 16.5468 15.1859 16.5468 12.6729C16.5468 10.1599 14.5108 8.12186 11.9978 8.12186ZM11.9978 9.71886C15.9028 9.71886 15.9078 15.6269 11.9978 15.6269C8.09381 15.6269 8.08781 9.71886 11.9978 9.71886Z" fill="white"/>
</g>
<defs>
<linearGradient id="paint0_linear" x1="1.54622" y1="23.139" x2="23.8517" y2="3.83387" gradientUnits="userSpaceOnUse">
<stop stop-color="#FFDD55"/>
<stop offset="0.5" stop-color="#FF543E"/>
<stop offset="1" stop-color="#C837AB"/>
</linearGradient>
<clipPath id="clip0">
<rect width="24" height="24" fill="white" transform="translate(0 0.671875)"/>
</clipPath>
</defs>
</svg>
