<svg width="24" height="25" viewBox="0 0 24 25" fill="none" xmlns="http://www.w3.org/2000/svg">
<g clip-path="url(#clip0)">
<path d="M12 24.6719C18.6274 24.6719 24 19.2993 24 12.6719C24 6.04446 18.6274 0.671875 12 0.671875C5.37258 0.671875 0 6.04446 0 12.6719C0 19.2993 5.37258 24.6719 12 24.6719Z" fill="#4D76A1"/>
<path fill-rule="evenodd" clip-rule="evenodd" d="M11.5467 17.9349H12.4885C12.4885 17.9349 12.773 17.9037 12.9183 17.7471C13.0519 17.6034 13.0477 17.3334 13.0477 17.3334C13.0477 17.3334 13.0293 16.0696 13.6158 15.8835C14.194 15.7002 14.9365 17.105 15.7235 17.6451C16.3186 18.0539 16.7708 17.9642 16.7708 17.9642L18.875 17.9349C18.875 17.9349 19.9758 17.8671 19.4539 17.0016C19.4111 16.9308 19.1499 16.3614 17.8893 15.1913C16.5699 13.9667 16.7466 14.1648 18.336 12.0464C19.3039 10.7563 19.6909 9.96867 19.57 9.63133C19.4547 9.31004 18.7428 9.39496 18.7428 9.39496L16.3736 9.40972C16.3736 9.40972 16.1979 9.38576 16.0677 9.46362C15.9404 9.53999 15.8585 9.71797 15.8585 9.71797C15.8585 9.71797 15.4835 10.7163 14.9834 11.5653C13.9283 13.3568 13.5065 13.4514 13.3341 13.3401C12.933 13.0809 13.0331 12.2986 13.0331 11.7429C13.0331 10.0067 13.2964 9.28287 12.5204 9.09548C12.2628 9.03324 12.0733 8.99216 11.4147 8.98553C10.5693 8.97676 9.85376 8.9881 9.44861 9.18661C9.17908 9.31859 8.97116 9.61272 9.0978 9.62962C9.25438 9.65058 9.60904 9.72524 9.79707 9.98129C10.0399 10.3116 10.0313 11.0534 10.0313 11.0534C10.0313 11.0534 10.1708 13.0971 9.70552 13.351C9.38615 13.5252 8.94806 13.1696 8.00749 11.5443C7.52555 10.7118 7.16168 9.79155 7.16168 9.79155C7.16168 9.79155 7.09152 9.61957 6.96638 9.52758C6.81451 9.41614 6.60231 9.38063 6.60231 9.38063L4.35089 9.39539C4.35089 9.39539 4.01291 9.4048 3.88884 9.55176C3.77846 9.68246 3.88007 9.95284 3.88007 9.95284C3.88007 9.95284 5.6427 14.0766 7.63849 16.1548C9.4685 18.0601 11.5467 17.9349 11.5467 17.9349Z" fill="white"/>
</g>
<defs>
<clipPath id="clip0">
<rect width="24" height="24" fill="white" transform="translate(0 0.671875)"/>
</clipPath>
</defs>
</svg>
